<svg
        xmlns="http://www.w3.org/2000/svg"
        xmlns:xlink="http://www.w3.org/1999/xlink"
        width="61.5px" height="63.5px">
    <path fill-rule="evenodd"  stroke="rgb(183, 1, 63)" stroke-width="1px" stroke-linecap="butt" stroke-linejoin="miter" fill="none"
          d="M60.113,22.854 C59.105,19.373 56.293,16.909 52.993,16.190 C53.554,12.850 52.320,9.314 49.473,7.081 C46.414,4.682 42.353,4.460 39.135,6.183 C37.658,2.837 34.322,0.502 30.439,0.502 C26.824,0.502 23.682,2.524 22.073,5.502 C19.033,4.030 15.305,4.232 12.373,6.352 C9.441,8.472 8.070,11.956 8.500,15.315 C5.175,15.905 2.268,18.255 1.125,21.695 C-0.019,25.134 0.899,28.765 3.205,31.239 C0.851,33.666 -0.137,37.279 0.939,40.740 C2.015,44.202 4.875,46.609 8.189,47.263 C7.692,50.614 8.995,54.124 11.885,56.301 C14.776,58.479 18.498,58.754 21.567,57.341 C23.118,60.350 26.220,62.435 29.834,62.505 C33.446,62.576 36.628,60.616 38.295,57.670 C41.306,59.202 45.037,59.073 48.010,57.012 C50.982,54.950 52.422,51.493 52.057,48.125 C55.393,47.602 58.345,45.309 59.555,41.892 C60.766,38.476 59.920,34.828 57.662,32.309 C60.063,29.929 61.122,26.336 60.113,22.854 "/>
</svg>